<svg width="16" height="16" viewBox="0 0 16 16" fill="none" xmlns="http://www.w3.org/2000/svg">
<path fill-rule="evenodd" clip-rule="evenodd" d="M12.4444 2.88889V6L14.48 3.95556C15.04 3.39556 16 3.79556 16 4.58667V10.0711C16 10.8622 15.04 11.2622 14.48 10.7022L12.4444 8.66667V11.7778C12.4444 12.2667 12.0444 12.6667 11.5556 12.6667H0.888889C0.4 12.6667 0 12.2667 0 11.7778V2.88889C0 2.4 0.4 2 0.888889 2H11.5556C12.0444 2 12.4444 2.4 12.4444 2.88889ZM7.93404 9.40355C8.23557 9.40355 8.48227 9.64477 8.48227 9.95177C8.48227 10.2533 8.23557 10.5 7.93404 10.5H3.54823C3.2467 10.5 3 10.2533 3 9.95177V5.56596C3 5.26443 3.2467 5.01773 3.54823 5.01773C3.84975 5.01773 4.09645 5.26443 4.09645 5.56596V8.63055L9.06664 3.66036C9.28045 3.44655 9.62584 3.44655 9.83964 3.66036C10.0535 3.87416 10.0535 4.21955 9.83964 4.43336L4.86945 9.40355H7.93404Z" fill="white" fill-opacity="0.4"/>
</svg>
