<svg width="22" height="19" viewBox="0 0 22 19" fill="none" xmlns="http://www.w3.org/2000/svg">
<path fill-rule="evenodd" clip-rule="evenodd" d="M1.72943 19H20.2594C21.0294 19 21.5094 18.17 21.1294 17.5L11.8594 1.5C11.4694 0.829998 10.5094 0.829998 10.1294 1.5L0.859434 17.5C0.479434 18.17 0.959434 19 1.72943 19ZM11.9994 16H9.99943V14H11.9994V16ZM10.9994 12C10.4494 12 9.99943 11.55 9.99943 11V9C9.99943 8.45 10.4494 8 10.9994 8C11.5494 8 11.9994 8.45 11.9994 9V11C11.9994 11.55 11.5494 12 10.9994 12Z" fill="#A4A8AF"/>
</svg>
